<svg xmlns="http://www.w3.org/2000/svg" style="display: none;">

	<symbol id="1" viewBox="0 0 32 32">
		<path d="M32 16C32 24.8366 24.8366 32 16 32C7.16344 32 0 24.8366 0 16C0 7.16344 7.16344 0 16 0C24.8366 0 32 7.16344 32 16ZM3.28829 16C3.28829 23.0205 8.97952 28.7117 16 28.7117C23.0205 28.7117 28.7117 23.0205 28.7117 16C28.7117 8.97952 23.0205 3.28829 16 3.28829C8.97952 3.28829 3.28829 8.97952 3.28829 16Z" fill="#0297D4"/>
		<path d="M15.7314 24V11.5605H15.5381L11.7354 14.2031V11.2812L15.7422 8.49902H18.9756V24H15.7314Z" fill="#0297D4"/>
	</symbol>

	<svg id="arrow_left" viewBox="0 0 15 26">
		<path d="M14 1L2 13L14 25" stroke="#0297D4" stroke-width="2" stroke-linecap="round"/>
	</svg>

	<symbol id="arrow_right" viewBox="0 0 24 26">
		<path d="M7 1L19 13L7 25" stroke="#0297D4" stroke-width="2" stroke-linecap="round"/>
	</symbol>

	<symbol id="call_24" viewBox="0 0 24 24">
		<path d="M7.77198 2.43905L8.84898 2.09505C9.85698 1.77305 10.935 2.29405 11.367 3.31205L12.227 5.34005C12.602 6.22305 12.394 7.26205 11.713 7.90805L9.81998 9.70605C9.93665 10.7821 10.298 11.8411 10.904 12.8831C11.4803 13.8909 12.2524 14.7732 13.175 15.4781L15.451 14.7181C16.313 14.4311 17.252 14.7621 17.781 15.5391L19.013 17.3491C19.629 18.2531 19.518 19.4991 18.755 20.2651L17.937 21.0861C17.123 21.9031 15.961 22.2001 14.885 21.8641C12.3463 21.0721 10.012 18.7211 7.88198 14.8111C5.74931 10.8944 4.99665 7.57172 5.62398 4.84305C5.88798 3.69505 6.70598 2.78005 7.77398 2.43905" fill="white"/>
	</symbol>

	<symbol id="check" viewBox="0 0 34 32">
		<path d="M10 13.2632L16.5185 20L32 4" stroke="#0297D4" stroke-width="3" stroke-linecap="round"/>
		<path d="M25.3207 5.08139C25.9102 4.39077 25.8324 3.34503 25.085 2.82942C22.4023 0.97883 19.2057 -0.016116 15.9205 0.000197266C12.085 0.0192437 8.3839 1.41553 5.49153 3.93467C2.59917 6.45382 0.70801 9.92819 0.16259 13.7248C-0.382829 17.5214 0.453785 21.3877 2.52002 24.6192C4.58626 27.8507 7.74461 30.2324 11.4197 31.3304C15.0948 32.4284 19.042 32.1697 22.5423 30.6013C26.0426 29.0329 28.863 26.2593 30.4898 22.7858C31.8831 19.8107 32.3212 16.4916 31.7671 13.28C31.6128 12.3852 30.6962 11.8758 29.8219 12.1211C28.9476 12.3665 28.4492 13.2741 28.5797 14.1727C28.9352 16.6197 28.5706 19.1304 27.5119 21.3912C26.2195 24.1509 23.9787 26.3544 21.1978 27.6005C18.4168 28.8465 15.2808 29.0521 12.361 28.1797C9.44124 27.3074 6.93199 25.4151 5.2904 22.8478C3.64882 20.2804 2.98414 17.2088 3.41747 14.1924C3.85079 11.1761 5.35328 8.41574 7.65121 6.41432C9.94915 4.4129 12.8896 3.30358 15.9369 3.28845C18.4333 3.27605 20.8652 3.99865 22.9372 5.34808C23.6981 5.84363 24.7311 5.77202 25.3207 5.08139Z" fill="#0297D4"/>
	</symbol>

	<symbol id="market" viewBox="0 0 104 93">
		<path d="M60.6674 27.1244H49.8326C48.1087 27.1244 46.4554 27.7368 45.2364 28.8268C44.0175 29.9169 43.3326 31.3953 43.3326 32.9369C43.3326 34.4785 44.0175 35.9569 45.2364 37.0469C46.4554 38.137 48.1087 38.7494 49.8326 38.7494H54.1674C55.8913 38.7494 57.5446 39.3618 58.7636 40.4518C59.9825 41.5419 60.6674 43.0203 60.6674 44.5619C60.6674 45.3252 60.4992 46.081 60.1726 46.7862C59.8459 47.4914 59.3671 48.1322 58.7636 48.6719C58.16 49.2117 57.4434 49.6398 56.6548 49.9319C55.8662 50.224 55.021 50.3744 54.1674 50.3744H43.3326M52 50.3744V54.2506M52 23.25V27.1244" stroke="#344054" stroke-width="2.08" stroke-linecap="round" stroke-linejoin="round"/>
		<path d="M26 81.375H78M86.6674 11.625H17.3326C14.9406 11.625 13 13.3604 13 15.4994V61.9994C13 64.1384 14.9406 65.8756 17.3326 65.8756H86.6674C89.0594 65.8756 91 64.1402 91 61.9994V15.4994C91 13.3604 89.0594 11.625 86.6674 11.625Z" stroke="#0297D4" stroke-width="2.08" stroke-linecap="round" stroke-linejoin="round"/>
	</symbol>

	<symbol id="old_phone" viewBox="0 0 24 20">
		<path d="M20.7072 12.7036C20.592 11.9032 19.974 11.2792 19.1784 11.0932C16.086 10.3684 15.3108 8.58762 15.18 6.61242C14.6316 6.51042 13.656 6.40002 12 6.40002C10.344 6.40002 9.36837 6.51042 8.81997 6.61242C8.68917 8.58762 7.91397 10.3684 4.82157 11.0932C4.02597 11.2804 3.40797 11.9032 3.29277 12.7036L2.69637 16.834C2.48637 18.2884 3.55437 19.6 5.03997 19.6H18.96C20.4444 19.6 21.5136 18.2884 21.3036 16.834L20.7072 12.7036ZM12 16.5904C10.326 16.5904 8.96877 15.2464 8.96877 13.5904C8.96877 11.9344 10.326 10.5904 12 10.5904C13.674 10.5904 15.0312 11.9344 15.0312 13.5904C15.0312 15.2464 13.6728 16.5904 12 16.5904ZM23.94 5.20002C23.9112 3.40002 19.3296 0.401224 12 0.400024C4.66917 0.401224 0.0875734 3.40002 0.0599734 5.20002C0.0323734 7.00002 0.0851734 9.34242 3.10197 8.95243C6.63117 8.49522 6.41397 7.26282 6.41397 5.50122C6.41397 4.27242 9.28437 3.97602 12 3.97602C14.7156 3.97602 17.5848 4.27242 17.586 5.50122C17.586 7.26282 17.3688 8.49522 20.898 8.95243C23.9136 9.34242 23.9676 7.00002 23.94 5.20002Z" fill="white"/>
	</symbol>

	<symbol id="point" viewBox="0 0 24 25">
		<path fill-rule="evenodd" clip-rule="evenodd" d="M11.262 22.634C11.262 22.634 4 16.518 4 10.5C4 8.37827 4.84285 6.34344 6.34315 4.84315C7.84344 3.34285 9.87827 2.5 12 2.5C14.1217 2.5 16.1566 3.34285 17.6569 4.84315C19.1571 6.34344 20 8.37827 20 10.5C20 16.518 12.738 22.634 12.738 22.634C12.334 23.006 11.669 23.002 11.262 22.634ZM12 14C12.4596 14 12.9148 13.9095 13.3394 13.7336C13.764 13.5577 14.1499 13.2999 14.4749 12.9749C14.7999 12.6499 15.0577 12.264 15.2336 11.8394C15.4095 11.4148 15.5 10.9596 15.5 10.5C15.5 10.0404 15.4095 9.58525 15.2336 9.16061C15.0577 8.73597 14.7999 8.35013 14.4749 8.02513C14.1499 7.70012 13.764 7.44231 13.3394 7.26642C12.9148 7.09053 12.4596 7 12 7C11.0717 7 10.1815 7.36875 9.52513 8.02513C8.86875 8.6815 8.5 9.57174 8.5 10.5C8.5 11.4283 8.86875 12.3185 9.52513 12.9749C10.1815 13.6313 11.0717 14 12 14Z" fill="#777777"/>
	</symbol>

</svg>